# xmcd
#
# Track frame offsets: 
#        150
#        19240
#        48790
#        64277
#        89270
#        106334
#        135479
#        168444
#        189261
#        221357
#        248010
#        280002
#        303660
#        323633
#        339517
#
# Disc length: 4711 seconds
#
# Revision: 0
# Processed by: cddbd v1.5.2PL0 Copyright (c) Steve Scherf et al.
# Submitted via: ExactAudioCopy v0.99pb5
#
DISCID=c912650f
DTITLE=Various Artist - Gothic Romance 4 [CD2]
DYEAR=2011
DGENRE=Gothic
TTITLE0=Sirenia - Save Me From Myself
TTITLE1=Imperia - Broken Wings
TTITLE2=Lacrimas Profundere - Dead Heart Serenade
TTITLE3=Theatre Of Tragedy - Venus
TTITLE4=Whispers In The Shadow - Blessed In Disguise
TTITLE5=Exit To Eden - Remember
TTITLE6=The Cold - Just For Tonight
TTITLE7=Schöngeist - Nie Mehr Allein
TTITLE8=Scream Silence - Euphoria
TTITLE9=Denight - The Core
TTITLE10=Destroid - Let Me Leave
TTITLE11=Sinamore - Darkness Of Day
TTITLE12=Letzte Instantz - Dein Licht
TTITLE13=Schandmaul - Prinzessin
TTITLE14=Edenbridge - Eternity
EXTD=
EXTT0=
EXTT1=
EXTT2=
EXTT3=
EXTT4=
EXTT5=
EXTT6=
EXTT7=
EXTT8=
EXTT9=
EXTT10=
EXTT11=
EXTT12=
EXTT13=
EXTT14=
PLAYORDER=
